<svg version="1" xmlns="http://www.w3.org/2000/svg" width="1244" height="1244" viewBox="0 0 933.000000 933.000000"><path d="M436.1 14.5c-8.5 2.4-13.5 6.7-17.3 15-2.1 4.5-2.3 6.5-2.3 19.5 0 45.6 8.6 60.8 33.8 59.5 12.3-.6 21.6-5.4 25.8-13.5 2.9-5.7 3.9-13.4 3.4-27.5-1-31.9-5.7-45.4-17.9-51.7-5.3-2.8-17.9-3.4-25.5-1.3zm15.2 13.6c5.2 2.4 7.7 11.1 9.4 32.9 2 25.6-.7 34-11.2 34-8.8 0-11.9-6.7-14-29.8-1.1-11.4-1.2-23.3-.3-28.1 1.4-8.2 8.8-12.3 16.1-9zM515.5 14c-10.3 2.4-17.8 11.2-20.4 24.1-3.8 18.3-4.5 43.5-1.6 52.4 4.3 12.6 13.8 18.2 30.9 18.3 9.5 0 16.4-3.1 21.3-9.6 3.3-4.4 6.8-14.3 7.7-22.2 2.8-23.2 2.7-38.1-.4-46.4-3-7.8-8-12.7-15.5-15-6.2-2-17.1-2.8-22-1.6zm15 14.2c1.5.7 3.5 2.9 4.6 5 1.7 3.4 1.9 5.3 1.4 18.5-1 33.7-4.4 43.6-14.6 43.5-2.5-.1-5.3-.9-6.8-2-4.4-3.2-5.4-8-4.7-23.7.6-14 .8-15.8 2.7-26.9 2.3-13 8.8-18.4 17.4-14.4zM386.4 22.3l-8.1 2.2.2 6.5c.2 3.6.6 13.7.9 22.5.3 8.8.9 21.3 1.2 27.8.3 8.2.2 11.7-.6 11.2-.5-.3-1-1-1-1.6 0-.5-1.6-4.4-3.6-8.6-2-4.3-6.6-14.6-10.4-22.8-14.3-31.6-12.7-28.8-15.8-28-1.5.4-3.6.9-4.7 1.1-5.8 1.1-11.5 2.7-11.5 3.2 0 1.2 41 83.1 41.9 83.6.5.3 5.9-.6 12.1-2.1l11.1-2.6-.5-40.6c-.2-22.3-.5-43.6-.5-47.4-.1-4.7-.5-6.7-1.3-6.6-.7 0-4.9 1.1-9.4 2.2zM580.6 23.7c-.6 2.2-8.6 33.2-9.1 35.3-.2.8-3.1 12.4-6.4 25.7-3.4 13.3-6.1 24.8-6.1 25.6 0 .8 2.8 2 7.8 3.2 4.2 1 8.2 1.9 8.7 2.2.6.2 3-7.4 5.5-17.8 2.5-9.9 4.7-18.5 5-18.9.3-.5 3-.3 6 .5 13 3.4 13.6 5.3 9 26.3-2.2 9.9-2.5 14.8-.9 15.7.9.6 5.7 1.9 16.9 4.6.9.3 1.4-.2 1.1-1.1-.8-3-.1-10.7 1.8-19 1.1-4.7 1.8-11.4 1.8-14.9-.2-6.2-.3-6.4-4.6-10.2-3-2.5-3.9-3.7-2.5-3.5 4.3.6 11.2-3.9 14.4-9.6 4-7.2 5.4-16.2 3.6-23.5-.9-3.3-6.3-9.1-10.6-11.3-2.9-1.5-37.7-11-40.2-11-.4 0-.9.8-1.2 1.7zm24.6 18.4c7.6 2 10.8 9.9 7.4 18-2.5 5.9-5 7.4-12 7.3-3.3-.1-7.3-.6-8.8-1.2-2.4-1-2.6-1.5-1.9-3.5.5-1.3 1.2-3.7 1.5-5.3 1-5.1 3.7-15.8 4.3-16.7.5-.8 1.7-.7 9.5 1.4zM279 56.4c-5.8 2.8-16.2 7.8-23.1 11l-12.6 6 3.7 8c2.1 4.5 6.8 14.4 10.5 22.1 3.7 7.7 9.1 18.9 12 25 13.3 27.9 13.5 28.4 15.3 27.6.9-.4 6-2.8 11.2-5.3 5.2-2.5 15.3-7.3 22.3-10.6l12.8-6.1-3.5-7-3.5-6.9-12.3 6c-6.8 3.3-13.7 6.6-15.4 7.3l-3.1 1.3-5.3-10.9c-2.9-6-5.1-11.1-4.9-11.3.2-.1 6.2-3.1 13.4-6.5 7.1-3.4 13.2-6.4 13.4-6.7.6-.5-5.3-13.3-6.1-13.4-.4 0-6.4 2.7-13.4 6-6.9 3.3-13.1 6-13.8 6-.8 0-6.8-11.5-9.4-18-.2-.6 15-8.4 25.6-13.1 1.7-.7 3.2-1.8 3.2-2.4-.1-.5-1.5-3.7-3.3-7.1l-3.2-6.1-10.5 5.1zM216.5 89.6c-3.8 2.5-6.9 4.9-6.8 5.3.1.5 10.2 17 22.4 36.7 12.2 19.8 23 37.1 23.9 38.6l1.6 2.7 7.7-4.7c4.2-2.6 7.7-5 7.7-5.4 0-.4-2.8-5.2-6.2-10.8-7.3-11.6-16-25.7-30.8-49.8-5.8-9.4-10.9-17.1-11.5-17.1-.5 0-4.1 2-8 4.5zM172 120.6c-12.4 9.7-22.6 17.9-22.8 18.3-.2.7 2.6 4.7 8.4 12 .2.2 3.4-2 7.1-5 3.7-2.9 7.3-5.7 8-6.1.8-.6 5.8 5 15.7 17.9 8.1 10.3 15.7 20.1 17 21.8 1.3 1.6 5.2 6.6 8.6 11 3.4 4.4 6.5 8.1 6.9 8.3 1.1.4 14.1-9.7 14.1-10.9 0-.5-2.3-4-5.2-7.7-5.4-6.9-27-34.5-29.1-37.2-.7-.8-3.6-4.6-6.5-8.3-6.2-7.9-6.3-7.2 3.7-14.7 3.3-2.5 5.8-5 5.6-5.7-.5-1.6-7.8-11.2-8.5-11.2-.3 0-10.6 7.9-23 17.5zM499 128c0 .6.5 1 1 1 .6 0 1 .6 1 1.4 0 2.1-4.6 2.5-40.7 3.1l-32.2.6-8.3 3.3c-4.6 1.8-10.8 3.7-13.8 4.1-3 .4-6.2.9-7 1-.8.2-4.2.6-7.5.9-6.2.7-10.9 1.4-16 2.1-2.7.4-2.6.3 1-1.3l4-1.9-4.8-.7c-3.5-.5-7-.1-13.5 1.5-9.5 2.4-14.7 4.6-35.7 15.1-7.7 3.8-18.5 8.9-24 11.3-9.9 4.3-18.6 8.6-23.5 11.6-31.2 19.2-59.3 41.4-72.9 57.4-4.4 5.1-21.1 23.7-22.6 25-1.8 1.7-16.8 19.6-21.6 26-10.6 14-21 31.5-23.4 39.5-.4 1.4-4.4 9.9-8.9 19-6.7 13.7-10.4 22.9-14.2 35.9-.9 2.8-3.4 15.8-4 20.6-.3 2.7-.7 5.7-.9 6.5-.1.8-.6 3.5-1 6-.7 4.1-4 13-4.8 13-1.2 0 1.3-14.4 5.8-33.2 1.4-5.9 2.5-11.6 2.5-12.5 0-8.7-15.1 37-18.4 55.7-.2 1.4-1.1 6.3-2 11-3.1 17.1-3.9 23.5-5.2 43.5-1.2 17.9-.7 48.5 1.1 66 2.1 20.5 3.6 26.5 6.1 24.5 1.9-1.6 3 .8 4.9 10.8.2 1.2 0 2-.4 1.7-2.4-1.4-2.1 8.9.3 14 2.2 4.5 2.6 4.4 1.5-.3-1.1-4.8-1.1-5.2.1-5.2 1.1 0 2.6 3.3 3.4 7.3 1.1 5.1 1.7 7.4 4.5 18.6 1.7 6.5 4.2 15.1 5.6 19.2 2.9 8.7 2.8 8 1.3 7.6-2.4-.4-1.2 11.7 2.3 22.1 4.2 12.7 8.9 22.3 17.5 36 1.9 2.9 3.4 5.4 3.4 5.7 0 1.4 30.6 47.4 32.9 49.5.4.3 2.6 3.2 5 6.5 12 16 32.4 37.1 49.2 50.8 2.5 2 5.2 3.7 6 3.7.8 0 5.2 2.9 9.9 6.5 4.6 3.6 8.9 6.5 9.5 6.5.5 0 .4.4-.3.9-1 .6-.4 1.7 2.3 4.4 5.2 5.2 17.6 14.3 22.1 16.3 6.5 2.8 7.6 3.2 16.9 5.9 5 1.5 11.9 4 15.5 5.6l6.4 3-5.8-5.3c-3.3-2.9-10.4-7.7-16-10.7-8.8-4.6-26.9-14.7-31.8-17.6-8.3-4.9-11.1-7-15.4-11.2-2.7-2.7-8.7-8-13.4-11.9-23.9-19.5-38.9-34.3-37.8-37.4.2-.7 3.4 2.4 7 6.8 13.9 16.6 29.8 28.4 60.8 44.9 12.8 6.8 23 13.2 33 20.6 22.6 16.7 30.8 22.1 40.5 26.2 8.9 3.8 19.3 6.9 27 8.1 6 .9 17.5 4.1 31 8.6 6.6 2.2 14 4.1 16.5 4.3 2.5.1 7.7.9 11.5 1.8 3.9.8 9.5 1.8 12.5 2.1 10.2 1.2 3.2-1.8-12.7-5.3-17.7-4-36.3-8.8-37.1-9.6-1.1-1 16.9 2.4 18.3 3.6.6.4 3.3 1.1 6 1.4 2.8.4 5.3.9 5.7 1.1.4.3 2-.2 3.5-.9 3.8-2 14.2-1.2 21.3 1.5 4.6 1.7 8 2.1 20.5 2.3 20.9.4 29-2.2 12.5-3.9-14.6-1.6-19.3-1.7-21.9-.6-3.1 1.2-14.4-.7-34.8-6.1-6.1-1.6-11.5-2.9-12-2.9-.4 0-.1-.5.7-1 .8-.5 2.2-.8 3-.5 4.2 1.2 17.9 1.5 18.5.5.4-.6.5-1.3.3-1.5-.2-.3-7.4-2.5-15.9-4.9-8.5-2.5-19.4-5.7-24.3-7.1-13-3.8-13.9-2.5-1.1 1.7 6.1 2 11.9 3.8 13 4.1 2.4.6-12.9-.1-19.9-.9-5.3-.6-14.9-4.4-17.8-7.1-1-.9-1.8-2.4-1.8-3.4 0-2.8-23.2-11.9-26.6-10.4-2.5 1.1-4.7.7-10.1-1.6-3.6-1.5-4.3-1.6-3.3-.4 3.4 4 27.8 17 41.5 22 2.8 1 5.5 2.2 6 2.5.6.4 1.9 1 3 1.3 1.1.3 7 2.3 13.2 4.5 6.1 2.2 12.4 4.3 14 4.6 1.5.3 4.2.8 5.8 1.2 1.7.3 3.6.7 4.2.7.7 0 1.1.2.8.5-.8.8-7.5.9-7.5.1 0-.4-.8-.5-1.8-.2-2.1.5-18.8-3.5-29.6-7.1-13.7-4.6-30.3-12.2-46.1-21.1-7.6-4.3-27.5-17.5-27.5-18.3 0-.4-2.3-3.2-5-6.2s-5-5.9-5-6.4c0-.4 1.7-.5 3.8-.1l3.7.6-2.5-1.7c-1.4-1-2.7-2.1-3-2.4-1.5-1.8-18.5-14.3-24.5-18-21.8-13.6-36.7-27.9-63.4-61-2-2.4-4.8-5.6-6.3-7-1.5-1.4-4.4-4.1-6.5-6.1-3.8-3.5-11.3-16.3-11.3-19.2 0-.8 1.1-1.8 2.5-2.1 4.2-1.1 4.4-.6-12.5-30-4.7-8.1-9.3-15.6-10.3-16.7-1-1.1-1.5-2.5-1.1-3.2.5-.9.4-.9-.7 0-1.9 1.9 2.5 14.1 11.8 32.6 4.1 8.2 7.2 15.1 6.9 15.4-.3.4-.8.4-.9.2-1.2-1.5-6.7-9.8-6.7-10.2 0-.2-3.9-6.9-8.6-14.8-10.1-16.8-19.2-34.8-22.3-43.7-1.2-3.4-3.4-8.6-5-11.5-2.8-5-8.1-20.2-8.1-22.9.1-.7.7-.2 1.6 1.2 1.1 1.9 1.4 2.1 1 .5-.4-1.6-1.5-6.8-2.1-9.5-.1-.3-.5-3.2-.9-6.4-1.2-8.8-2.7-11.5-2.1-3.6.6 6.5.8 7.8 2 13.5.4 1.6.4 2.7 0 2.3-.7-.7-5.3-19.3-6-24.2-.2-1.7-.7-7.6-1-13.1-.4-5.5-.8-10.6-1-11.2-.3-.7-.1-1.3.4-1.3.4 0 1.6 2.8 2.6 6.2 2.4 8.4 4.7 14.9 5.2 14.5.2-.2-.1-3.5-.6-7.3-.6-3.8-1.3-11.4-1.6-16.9-.3-5.5-.8-11.1-1-12.5-3.3-19.3-2.4-33 4.4-70.5 2-10.9 3.4-19.9 3.4-22.3 0-.6.4-1.2.9-1.2.4 0 .8.6.8 1.2 0 2.8 2.2-2.2 5.9-13.7 3.6-11.3 4.3-14.1 5.7-24.8.3-2.3.7-5.8 1-7.7 1.8-13.2 17.5-48.5 33.3-75 6.8-11.3 15-23.1 12.5-18-.9 1.9-.1 1.1 6.7-7 2.9-3.6 7.3-8.5 9.6-11 7-7.6 8.2-9.1 10.3-13.5 2.1-4.4 11.1-13.4 25.8-26 4.5-3.8 10.8-10.1 14.1-14 9.1-10.7 10.1-11.7 17-17.9 8.6-7.6 40.2-25.4 68.4-38.5 4.9-2.3 9.4-4.1 10.1-4.1.6 0 1.6-.4 2.1-.9 2.6-2.4 27.6-10 41.7-12.6 5-.9 12.3-3.2 17-5.4 4.6-2.1 9.5-4.3 11.1-4.9 3.6-1.6 3.4-3.2-.5-3.2-3.7 0-3.4-.7.7-1.4 14-2.6 55.9-2.6 78 0 2.2.2 5.8.6 8 .9 13.7 1.6 38.7 6.1 49.3 8.9 5.2 1.4 17.3 1.5 22.2.2 1.4-.3 6.8-1.3 12-2.2 13.1-2.1 18.2-3.4 20.3-5.2 2.3-2 2.2-3.4-.5-5.9-3.3-3-13-7.6-13.7-6.6-.6 1-3.7.9-11.6-.1-7.8-1.1-8.4-1.2-20-3.9-6-1.4-13.9-3.1-17.5-3.7-3.6-.7-7.2-1.4-8-1.5-.8-.2-2.4-.4-3.5-.5-1.7-.2-1.6-.3.5-.9 2.2-.6 1.7-1-4-2.9-10.8-3.5-30-6.2-30-4.2zM124.7 450.2c-.3.7-.5.2-.5-1.2s.2-1.9.5-1.3c.2.7.2 1.9 0 2.5zm-2.3 220.7c-.6.6-1.1-.1-1.8-2.9l-.7-2.5 1.5 2.5c.8 1.4 1.2 2.7 1 2.9zM134.8 159.5c-.2.2-2 .5-4.1.8-6 .8-13.7 6.3-19.3 13.9-7.6 10.3-8.1 19.7-1.7 30.6 4.2 7.1 19.1 22.6 29.9 31.2 9.9 7.9 15.3 10.3 23.4 10.4 7.8.1 13.2-2.6 21-10.6 12.5-12.8 12.3-25.9-.5-40.6-4.9-5.5-5.9-6-7.8-3.9-.7.7-3.4 3.6-6.1 6.5l-4.9 5.1 3.3 3.2c4.1 4.2 7.9 9.9 8.5 12.9.7 3.6-2.3 8.7-6.1 10.5-3.2 1.5-3.7 1.5-7.6-.3-5.8-2.6-17.6-12.2-27.4-22.3-14.5-15-16.9-21.4-10.5-27.1 2.9-2.6 4-2.9 7.3-2.5 2.1.3 5.5 1.8 7.5 3.4 6.5 5.2 6 5.1 9.9.8 2-2.2 4.8-5.3 6.2-6.8l2.6-2.8-3.4-3c-5.1-4.4-10.9-7.7-15.7-8.7-2.3-.5-4.3-.8-4.5-.7zM689.7 194.7c-3.3.9-4 5.1-1.6 10.1 2.5 5 11 15.9 18.9 24.2 5.5 5.7 26.3 29.8 31.5 36.5 1.7 2.1 7.4 9.9 12.7 17.4 5.4 7.5 10.2 14.2 10.9 14.9 1.6 1.9.6 2.5-5.4 2.8-13 .6-23.6 11.5-31.3 32.4-2.4 6.5-2.7 9-2.8 19-.1 10.4.1 12 2.4 16.4 1.4 2.8 3.4 5.5 4.5 6 8.5 4.5 8.9 5.9 5.4 18.6l-2.2 7.8 2.3 4.5c1.2 2.5 3.5 5.4 5 6.5 3.6 2.7 6.2 8.4 6.2 13.5 0 2.4-1.6 8.4-3.6 13.7-4.2 11.3-4.9 15-3.6 18.4 2 5.5 10 3.9 19.6-4 5.3-4.4 6.5-8.2 8.9-27.9.4-2.8.8-6.1 1-7.5.2-1.4.7-5 1-8 .3-3 .8-6.6 1-8 .2-1.4.7-6 1-10.2.3-4.3.8-8.6 1-9.6 1.5-8 2.3-46.9 1.2-59.2l-.7-7.5 4.5 8c2.5 4.4 7.7 14.3 11.5 22.1 3.9 7.8 7.8 15.2 8.9 16.5 2.5 3.2 9 14 13.4 22.1 3.5 6.5 6.6 17.3 11.3 39.1 1.3 6.2 2.6 12 2.9 12.9.3 1 .7 2.8 1 4 .4 1.9.8 3.9 2 8.8.5 2 2.6 11.9 3 13.8.2 1.3.6 3.1.9 4 .3.9.8 3.7 1.1 6.2.3 2.5.8 5.2 1 6 .2.8.6 3.5.9 6 .3 2.5.8 5.4 1 6.5.2 1.1.7 4.2 1 7 .4 2.7.9 6.1 1.1 7.5.2 1.4 1.1 7.9 2 14.5 1 6.6 1.9 12.1 2 12.3.2.2-.4 2.7-1.1 5.5-.8 2.9-1.6 9.2-1.9 14-.3 8.1-1 15.3-2 21.7-.2 1.4-.7 4.7-1 7.5-.3 2.7-.7 6.8-1 9-.2 2.2-.7 6.2-1 8.8-.7 5.8-4.2 14.1-9.6 22.3-2.2 3.4-4.8 9.2-5.9 13-4.7 16.5-14.4 37.9-26.3 57.9-16.1 27.1-27.5 44.2-33.9 50.5-3.5 3.6-10.7 11.9-16 18.5-11.4 14.5-20.3 23.3-28.1 28-3.2 2-9.5 6.4-14 9.8-7.3 5.7-25 18.2-51.2 36.4-4.9 3.4-9.5 6.6-10 7-3.4 2.7-5 3.7-3.7 2.3 1.8-2.1 1.5-3-1.3-3s-6.2 1.4-12.5 5.1c-2.5 1.5-11.5 5-20 7.8-8.5 2.9-16.3 5.6-17.2 6.2-1 .5-2.3.9-3 .9-.7 0-3.1 1.1-5.3 2.5l-4 2.5 4.3-.4c2.4-.3 5.2-.1 6.4.3 2.1.8 2.1.8-.8 3.8-9.7 9.9-44.7 24.5-80.9 33.8-5.4 1.4-11.4 2.5-13.2 2.5-1.8 0-3.3.3-3.3.7 0 1.3 37.4.3 45.1-1.2.9-.2 4-.6 7-1s5.6-1 5.9-1.4c.3-.4 3.7-1.5 7.5-2.5 3.9-1 7.4-2.2 7.8-2.6 1.2-1-3.9-.5-8.8.9-2.2.6-9.4 1.3-16 1.6-11.7.4-11.3 0 1.5-2 26.1-4 52.9-11.2 64.9-17.4 2-1 6.8-2.8 10.6-3.9 6.4-1.9 11.5-3.1 30.9-7.7 15.7-3.7 56.7-27.1 79.4-45.5 10.6-8.5 17.7-15.4 41.5-40.1 8.7-9 19-18.9 22.8-21.9 5.2-4.1 8.8-8.1 13.8-15.5 10.2-15 20.7-32.9 23-38.9 1.1-3 3.7-8 5.7-11.3 9.2-14.5 15.2-23.5 21.4-32.3 7.9-11.1 9.4-14 12.6-23.3 2.6-7.7 4-14.8 4.9-25.2.5-7.1 4.9-27 6.4-29.4.7-1 1.3-1 2.9-.2 1.8 1 2.2.7 3.1-2.2 1.2-3.9 4.1-23 4.6-31.2.2-3.3.8-8 1.3-10.5 1.3-7 .5-16.9-2.4-27.7-1.5-5.7-2.7-13.1-2.9-17.8-.3-9.3-1.5-25.7-2-26.5-.2-.3-.6-2.8-.9-5.5-.3-2.8-.8-6.4-1.1-8-2.9-15.6-4.5-24.7-5-28.5-.4-2.5-2.4-8.8-4.5-14-2.1-5.2-6.8-17.8-10.5-28-16.8-46.2-28.2-68.4-46-89.5-2.3-2.8-7.3-9.1-11-14-23.4-31-53.6-58-91.6-81.9-10.4-6.5-13.6-7.8-17.2-6.9z"/><path d="M373.7 209.6c-.1.1-2.7.4-5.8.7-10.7 1.1-16.8 5.1-20.7 13.6-2.2 4.7-2.6 7-2.5 14.1.1 14 5.9 27.3 17 38.7 6.8 6.9 10.8 9 18.9 9.9 3.2.4 6.8 1.1 7.8 1.6 5 2.6 10.4 12.2 15.5 27.7 4.5 13.4 8.6 18.6 21.9 27.5 8 5.4 9 6.8 9.3 13.2.1 2.7 1.1 7.4 2.2 10.4 3.4 9.6 7.6 12.2 13 8 2.3-1.9 2.7-1.9 6.8-.5 2.4.9 5 2.2 5.9 2.9 4.8 4.2 46.5 23.9 53.2 25.1l3.8.7-.6-7.8c-.5-8-.6-8.7-1.9-15.9-1-5.4-5.8-15.5-8.7-18.2-1.3-1.1-6.8-4.6-12.3-7.6-11.5-6.3-13-8.2-14-17.7-1.2-10.9-3.1-13.9-12.3-19.2-6.2-3.5-7.6-5.5-9.1-12.3-1.9-9.1-4.6-16.3-7.2-19.3-3.8-4.2-13.5-9.4-19.3-10.3-5.4-.9-8.4-3.2-9.1-7-.2-1.3-.6-3.8-.9-5.4-1.5-8.5-5.1-15.5-12.1-23.7-6.8-8.1-15.4-20-18.3-25.4-.7-1.3-2.1-2.4-3-2.5-.9 0-5.2-.4-9.5-.8-4.3-.3-7.9-.6-8-.5zM64.1 235.6C56.6 246.5 56 244 70 260c13.2 15 13.6 15.5 32.3 37.2 9.4 10.9 17.3 19.8 17.6 19.8.5-.1 5.2-6.5 9.4-13 1.6-2.5 1.6-2.6-5.2-9.7l-6.9-7.2 6-8.8c3.3-4.8 6.5-9.4 7.2-10.1.9-1 3-.5 10 2.4 4.9 1.9 9.2 3.2 9.6 2.7 3.6-4.2 10.1-14.6 9.4-15.2-.5-.4-7-2.9-14.4-5.5-24.1-8.5-46.2-16.3-60.6-21.4l-14-5-6.3 9.4zm51.8 25c.5.5-8.7 14.4-9.5 14.4-.3 0-2.5-2-4.7-4.3-2.3-2.4-8.6-9-13.9-14.6-5.4-5.6-9.8-10.3-9.8-10.6 0-.4 37.1 14.4 37.9 15.1zM220.1 296.6c-5.1 3.6-5.2 15-.1 19.6 1.7 1.6 3.6 2.8 4.4 2.8.7 0 2.9 4.1 5 9.4 4.1 10.3 6.3 13.7 11.6 18.2 10.6 9.1 21.8 11.9 39 10 1.9-.2 4.7-.2 6.2.1 5.4 1.1 11.8 10 13.3 18.9.7 4 6.4 16.8 8.7 19.4 2.8 3.2 5.5 3.9 13.4 3.4 11.8-.8 15-.7 17.7.8 4.9 2.6 11 12 12.2 18.8.4 1.9.8 4.2 1 5 .2.8.4 2.2.4 3.1.1.9 2 4.5 4.3 7.9 10.8 16.3 35.1 25.8 49.8 19.6 11.3-4.7 12.1-14.9 1.9-26-6.2-6.8-16.1-14.3-29.9-22.6-5.8-3.5-11.3-7.3-12.2-8.4-1-1.2-2.7-5-3.8-8.6-3.9-11.9-4.9-13.7-11-17.9-3.2-2.3-9.3-5.5-13.6-7.2-4.3-1.7-9.4-4.1-11.3-5.3-9.7-6-10.7-6.1-24.8-4l-4.3.6v-16l-7.9-9.3c-4.4-5.2-9-10.1-10.3-10.9-4.5-2.8-13.4-6.1-20.5-7.5-9.2-1.8-17.5-5.7-21-9.9-1.6-1.9-4.2-3.7-5.8-4-6.3-1.3-10.4-1.3-12.4 0zM202.5 404.7c-7.8 1.6-17.3 7.7-20.7 13.2-3.8 6.1-3.1 10.9 4 25.1 4.6 9.2 11.9 16.9 23.3 24.3 14.4 9.3 39.6 21.6 51.8 25.3 5.7 1.7 13.3 5.1 17.3 7.8 6.9 4.6 24 7 28.6 4 2-1.3 2.3-2.1 1.8-4.7-.8-3.7-6.4-12.7-8-12.7-.6 0-4.3-2.8-8.2-6.3-3.9-3.4-9.8-8.6-13.1-11.5-6.1-5.2-12.6-14.8-17.2-25.3-6.5-14.6-25.4-32.2-40.1-37.4-4.4-1.6-15.6-2.6-19.5-1.8zM814.5 438.7c.3 3.2.8 7.1 1 8.8 1.2 9.7 1.5 12.8 2 20 .6 7.6 6.8 38.1 8 39.3 1.2 1.2 2.4-2.3 2-5.8-.2-1.9-.7-6.2-1-9.5-.6-7.1-1.2-10.6-3.1-20-.7-3.9-1.6-8.1-1.8-9.5-.3-1.4-1.4-6.6-2.5-11.5-2.7-12.1-3.2-14.8-3.3-16.3-.1-.6-.5-1.2-1-1.2s-.6 2.6-.3 5.7zM539 446.7c-4.7.7-12.1 1.2-16.5 1.2-8.7 0-20.2.2-22.3.3-1.6.2-36.4 34.6-41.7 41.3-8.3 10.5-8.3 10.6-12.1 8.8-2.8-1.4-4.1-1.5-8.8-.4-3 .7-5.9 1.8-6.5 2.5-1.3 1.6-3.8 13.9-4.7 22.9-.3 3.4-.7 8-.9 10.2-.2 2.2.5 7.3 1.6 11.4 1.9 7.1 1.9 7.6.3 16.4-2.3 12.3-1.5 23.4 2.5 35.1 1.7 5 3.1 10.5 3.1 12.3 0 1.8.7 7.9 1.5 13.5 2.8 19.5 2.5 24.5-1.8 27.3-1.3.8-5.5 1.6-9.6 1.9-8.2.4-9.3 1.1-15.2 9.8-6.3 9.2-8.1 14.9-8.6 26.1-.6 16.7 3.5 22 16.3 21 5.9-.4 6.2-.3 11.2 3.6 2.8 2.2 10.9 7.2 18 11s16.5 9.3 20.8 12.4c14.3 9.9 30.6 18.6 38 20.3 3.8.8 9.2 2.4 11.9 3.4 2.8 1 16.3 5.5 30 10.1 13.8 4.5 27 9.2 29.5 10.4 3.1 1.6 6.1 4.4 9.7 9.2 4.6 6.3 6 7.4 14.5 11.6 12.9 6.4 16.2 7.4 24.3 7.1 15.1-.6 26.9-3 34.1-7 4.7-2.7 13.8-10.8 26.5-23.9 19.8-20.5 41.6-57.9 43.8-75.3.8-6.6 1.4-7.6 11.5-22.6 5.8-8.6 10.6-16 10.6-16.5s3-3.3 6.8-6.2c3.7-2.9 8.5-7 10.7-9 2.2-2 5.4-4.8 7.1-6.2l3-2.6 3 2c2.2 1.5 3.9 1.8 6.9 1.4 8.7-1.3 11.2-2.4 12.5-5.6 2.1-4.9 1.9-24.7-.4-40.9-.2-1.4-.7-4.5-1-7-.7-4.5-2.1-12.4-3-16.8-1.1-4.9-5.9-20-8.3-25.7-5.2-12.5-17.2-29.6-24.6-35.3-2.7-2-3.5-3.2-3-4.7.3-1.1.9-2.2 1.4-2.5.4-.3 1.4-2.1 2.2-3.9 1.4-3.2 1.1-6-1.6-16.6-.9-3.4-4.7-7.8-8.4-9.6-8.3-4-25-1.7-34.9 4.7-5.4 3.6-6.8 12-3.4 21 1.1 3.1 1.9 5.7 1.8 5.8-.2 0-3.8 1.9-8.2 4.1-7.1 3.6-8.6 4-16.1 4.1-10.5.2-19.3 3.8-23.6 9.6-3.1 4.4-3.9 3.9-4.5-2.9-.2-2.5-.9-5.2-1.6-6-3-3.7-11.5-6.7-39.8-14.3-11.4-3.1-14-4.5-14-7.5 0-2.5-3.6-5.8-14.3-12.9-8.1-5.4-11.3-9.6-12.1-15.9-.9-6.3-1.9-8.3-5.4-10-3.8-2-25.3-7.7-27.7-7.4-1.1.1-5.8.7-10.5 1.4z"/><path d="M398.5 542.7c-6 1.3-22.6 11.2-42.5 25.2-5.2 3.7-12.6 8.9-16.5 11.6-8.1 5.6-25.8 18.6-26.5 19.5-.3.3-5.7 4.5-12 9.4-6.3 5-14.6 11.7-18.5 15.1-8.4 7.5-17.4 14-18.1 13.2-.3-.3-1-2.5-1.6-4.9-.5-2.4-1.2-5.1-1.4-6.1-.2-.9-.6-2.5-.8-3.5-.2-.9-.9-3.5-1.4-5.7-.6-2.2-1.8-8.2-2.7-13.3-2.5-14.4-4.8-19.8-10.2-23.2-4.6-2.9-6.3-3-13-.9-4.1 1.3-10.2 10.1-10.7 15.3-.3 3.5 2.4 15.3 7.9 34.8 3 10.3 3 10.5.8 8.6-3-2.6-9.5-5.5-15.3-6.8-5.2-1.1-5.9-1-13.5 2-12.9 5.1-16 6.8-19.7 10.8-7.4 8-8.9 13.3-6.2 22.2 2.7 9.2 6.7 12 18.6 13.4 5.4.6 8.3 1.9 17 8 9.9 6.9 14.3 8.9 19.6 8.7 4.8-.1 7.9-.5 11.2-1.6 1.6-.5 2.1.2 3 3.7.6 2.4 1.7 6.8 2.5 9.8.8 3 1.6 6.6 1.9 8 .2 1.4 2.3 9.9 4.5 19s4.2 17.6 4.5 19c3.2 14.7 5.9 25.5 9 35.5 2.1 6.6 4 13.1 4.2 14.5.8 3.9 5.2 10 8.2 11.2 6.6 2.6 16.5 0 19.6-5.3 2.8-4.8 2.7-6.7-1.3-23.4-2.2-8.8-6-24.8-8.5-35.5-2.6-10.7-6-24.6-7.7-30.9-1.6-6.3-2.7-11.6-2.5-11.9.5-.4 4.1 1.3 11.6 5.5 37.8 21.3 63.2 32.5 79.2 34.8 2.3.4 6.1 1.1 8.3 1.6 5.4 1.4 16.1 3.6 21 4.3 2.2.4 5.5.9 7.3 1.2 7.7 1.4 34.8.7 43.6-1.1 4.6-.9 13.7-5.6 14.3-7.3.9-2.2-3.7-5.8-9.9-7.6-4.9-1.4-7.6-1.8-17.5-3.1-2.1-.2-5.8-.7-8.3-1-16.4-2-53.5-12.5-71.5-20.2-14.8-6.4-43.4-20.6-42.9-21.4.2-.4 2.8-1.9 5.7-3.4 6.7-3.2 12.6-8.1 13.8-11.3.6-1.5 1-5.2 1-8.5.1-9.2-3.1-12.4-13.1-13.2-2.5-.2-8.3-.7-13-1.1-4.7-.4-11.8-.8-15.7-.8-4 0-7.3-.1-7.3-.2s3.3-2.8 7.3-6c19.1-15.4 33.1-26.4 40.1-31.4 4.3-3 10-7.3 12.9-9.5 13.7-10.7 32.1-23 40.4-27 5.1-2.5 9.5-4.5 9.9-4.5 3.6 0 15.4-15.8 15.4-20.7-.1-4-3.4-10.9-6-12.3-2.6-1.4-5.8-1.9-8.5-1.3zM125.4 579.5c-.6 2.5-.2 8.7 1 14.4.5 2.3 3.6 6.5 4.2 5.8.2-.2-.3-3.7-1.2-7.8-.8-4.1-1.7-8.9-2-10.8-.6-4.5-1.1-5-2-1.6zM139 646.1c0 .3 1.3 3.2 2.9 6.5 1.5 3.2 4 8.5 5.5 11.7 1.5 3.1 3.2 5.5 3.6 5.2.6-.3.5-1.5 0-2.8-.5-1.2-2.2-5.6-3.8-9.7-1.6-4.1-3.5-7.5-4.2-7.5-.6 0-1.8-.9-2.6-1.9-.8-1.1-1.4-1.8-1.4-1.5zM104.1 663c-.2 2.1 3.3 10.7 5.4 13.2 1.4 1.6 2.5 2.6 2.5 2.1-.1-.9-7.9-16-7.9-15.3zM391.5 913c2.3 1.1 5.9 1.9 8.5 1.9l4.5-.1-3.5-.9c-1.9-.4-4.9-1-6.6-1.3-1.7-.3-3.9-.8-5-1.1-1-.3-.1.4 2.1 1.5z"/></svg>